<?xml version="1.0" standalone="no"?>
<!DOCTYPE svg PUBLIC "-//W3C//DTD SVG 20010904//EN"
 "http://www.w3.org/TR/2001/REC-SVG-20010904/DTD/svg10.dtd">
<svg version="1.0" xmlns="http://www.w3.org/2000/svg"
 width="1030.000000pt" height="1022.000000pt" viewBox="0 0 1030.000000 1022.000000"
 preserveAspectRatio="xMidYMid meet">

<g transform="translate(0.000000,1022.000000) scale(0.100000,-0.100000)"
fill="#000000" stroke="none">
<path d="M5085 9407 c-55 -19 -94 -40 -149 -82 l-48 -36 -34 26 c-19 14 -64
40 -101 58 -87 40 -210 49 -298 21 -157 -49 -304 -200 -406 -418 -93 -200
-176 -531 -195 -788 -4 -47 -10 -91 -13 -96 -3 -5 -111 -14 -240 -20 -128 -6
-235 -13 -238 -16 -10 -9 -90 -412 -127 -632 -78 -463 -113 -758 -182 -1525
l-6 -66 -96 -55 c-54 -30 -157 -88 -231 -129 -173 -96 -216 -146 -242 -284
-13 -71 4 -172 41 -250 20 -41 99 -142 247 -315 l218 -255 5 -104 5 -104 55
-18 c30 -10 81 -25 113 -34 l57 -16 239 -282 c156 -183 257 -293 288 -314 97
-65 207 -86 313 -59 83 22 116 42 285 176 159 126 189 154 130 120 -252 -143
-292 -160 -389 -160 -122 0 -100 -21 -718 703 -304 357 -565 667 -580 689 -33
49 -52 134 -43 198 10 76 49 120 152 176 1043 564 1602 1032 2085 1747 66 98
134 194 150 213 l30 34 -21 50 c-38 87 -19 176 50 234 l34 29 6 -64 c4 -35 7
-92 8 -127 l1 -62 38 19 c20 10 57 25 80 32 l44 13 -7 115 c-33 583 -161 1077
-348 1355 -26 38 -47 71 -47 75 0 11 94 68 134 81 51 16 134 7 194 -21 69 -33
187 -158 249 -263 87 -147 166 -372 212 -603 12 -55 21 -104 21 -107 0 -3 36
-6 80 -6 l81 0 -6 38 c-93 546 -306 947 -571 1078 -71 35 -84 39 -173 41 -60
2 -111 -2 -136 -10z m-389 -175 c178 -91 333 -349 428 -713 35 -132 78 -360
71 -368 -2 -2 -252 -15 -554 -30 -302 -14 -553 -29 -557 -33 -4 -5 -9 -89 -12
-188 -4 -167 -3 -183 17 -229 26 -61 26 -113 2 -166 -35 -78 -113 -121 -202
-113 -118 12 -200 132 -169 246 11 42 76 122 98 122 8 0 12 -31 12 -99 0 -84
3 -102 21 -125 27 -34 82 -36 116 -4 22 21 23 26 23 202 0 796 197 1397 497
1511 52 20 156 14 209 -13z m-916 -2134 c0 -18 27 -6 45 21 21 33 35 32 35 -2
0 -43 14 -50 53 -27 l37 22 -6 -45 -7 -45 42 5 c44 6 49 0 26 -31 -23 -31 -18
-45 20 -52 43 -8 44 -18 5 -41 -35 -20 -36 -24 -10 -41 17 -10 27 -5 83 48 35
33 75 80 88 105 28 53 41 58 33 13 -27 -158 -114 -276 -253 -342 -62 -29 -73
-31 -176 -31 -103 0 -114 2 -177 32 -131 62 -230 192 -244 319 l-6 59 30 -51
c28 -47 143 -164 161 -164 5 0 14 6 20 14 10 12 6 19 -18 37 -17 13 -31 26
-31 30 0 4 18 10 40 14 22 4 40 9 40 12 0 3 -9 16 -20 30 -30 38 -25 46 21 39
l42 -7 -6 41 c-6 44 4 50 37 25 29 -22 34 -19 47 27 l11 42 19 -24 c10 -14 19
-28 19 -32z"/>
<path d="M5765 8174 c-132 -7 -260 -13 -284 -13 l-44 -1 6 -57 c3 -32 11 -121
18 -198 9 -108 16 -146 30 -167 11 -14 19 -38 19 -52 0 -14 3 -26 6 -26 3 0
252 41 553 91 300 50 576 92 613 92 118 0 215 -66 254 -175 13 -36 15 -79 10
-263 l-5 -220 34 205 c40 242 41 277 15 363 -27 88 -94 163 -182 203 -59 27
-73 29 -198 31 l-135 2 -211 100 c-116 56 -222 100 -235 100 -13 -1 -132 -8
-264 -15z"/>
<path d="M6125 7618 c-253 -38 -557 -92 -643 -113 -181 -44 -215 -70 -349
-273 -204 -307 -364 -504 -602 -742 -382 -380 -808 -684 -1463 -1045 l-178
-97 0 -45 c0 -50 14 -82 63 -140 l34 -41 -1 60 -1 59 175 98 c663 367 1084
666 1456 1036 230 229 434 478 599 735 130 201 162 227 386 313 123 48 401
141 539 181 89 26 85 30 -15 14z"/>
<path d="M6343 7502 c-272 -97 -262 -478 14 -558 242 -70 455 188 340 412 -66
129 -221 193 -354 146z m205 -88 c82 -34 132 -110 132 -200 0 -227 -296 -303
-404 -105 -59 110 -16 244 97 300 50 25 122 27 175 5z"/>
<path d="M5876 6715 c-122 -171 -111 -164 -188 -126 -74 36 -166 61 -223 61
-242 0 -507 -198 -602 -448 -59 -159 -37 -324 74 -540 36 -70 81 -157 100
-194 56 -111 57 -210 1 -274 -95 -108 -245 -108 -354 0 -102 103 -97 215 17
360 22 27 39 52 39 57 0 6 -277 232 -354 288 -18 14 -25 10 -89 -60 -91 -98
-163 -209 -188 -289 -23 -73 -27 -185 -9 -252 14 -51 59 -140 94 -187 l26 -35
-129 -75 c-72 -42 -144 -84 -162 -94 l-33 -18 117 -117 116 -116 38 18 c21 10
96 52 167 94 128 75 128 75 155 58 64 -42 193 -98 270 -117 70 -18 104 -21
200 -17 194 9 333 67 477 201 168 156 231 340 190 547 -23 112 -62 203 -148
347 -132 218 -158 316 -102 383 55 65 133 79 199 34 112 -76 135 -177 70 -313
-29 -60 -33 -77 -23 -86 7 -7 87 -70 177 -140 l164 -127 18 23 c34 45 109 206
125 270 41 153 15 311 -71 446 -29 45 -44 77 -39 85 5 7 52 73 106 146 54 72
98 133 98 135 0 7 -219 197 -227 197 -4 -1 -48 -57 -97 -125z"/>
<path d="M6880 6355 c-22 -67 -79 -174 -157 -294 l-75 -115 52 -325 c28 -179
55 -340 60 -358 4 -18 72 -130 151 -250 197 -303 212 -326 203 -320 -5 3 -85
100 -179 215 -93 115 -172 208 -174 206 -5 -5 -111 -946 -108 -963 1 -8 47 57
102 144 55 87 102 162 105 166 3 5 71 13 150 19 214 15 230 18 230 40 0 10 -9
65 -20 121 -11 57 -71 383 -135 724 -208 1126 -190 1036 -205 990z"/>
<path d="M6533 5782 c-447 -634 -1058 -1220 -1746 -1676 -155 -103 -165 -112
-140 -118 48 -12 478 -57 738 -77 459 -37 1076 -65 1086 -50 6 10 206 1186
222 1304 8 60 3 118 -32 400 -23 181 -43 330 -44 331 -1 1 -39 -50 -84 -114z
m-468 -989 c15 -37 32 -72 36 -77 4 -5 38 14 76 42 78 58 80 57 65 -54 -5 -38
-8 -71 -6 -73 2 -2 43 1 91 8 47 6 88 10 89 8 2 -1 -22 -35 -53 -75 -30 -41
-53 -75 -51 -76 1 -1 41 -19 88 -39 l85 -36 -44 -18 c-24 -9 -64 -26 -88 -38
l-45 -20 56 -72 c31 -39 56 -73 56 -76 0 -2 -39 2 -87 8 -49 7 -91 10 -94 6
-4 -3 -1 -45 6 -93 6 -49 10 -88 8 -88 -1 0 -35 25 -74 55 -40 31 -75 52 -79
48 -4 -4 -20 -41 -36 -80 -16 -40 -32 -73 -35 -73 -4 0 -21 35 -39 78 -19 42
-35 79 -36 80 -1 2 -35 -21 -76 -51 -40 -31 -74 -55 -75 -53 -2 1 2 42 9 90 6
47 9 89 6 91 -2 2 -34 0 -71 -6 -115 -18 -117 -15 -56 64 30 40 48 71 43 77
-5 4 -38 20 -74 35 -36 15 -69 30 -73 34 -4 5 28 23 72 41 45 19 81 37 81 40
0 4 -23 37 -51 74 -28 37 -49 69 -47 72 3 2 42 -1 87 -7 45 -6 85 -9 88 -5 3
3 1 43 -5 88 -6 46 -9 84 -7 86 2 2 34 -19 71 -47 37 -28 70 -51 74 -51 4 0
22 36 40 80 18 44 35 78 39 75 4 -2 20 -35 36 -72z"/>
<path d="M470 2920 l0 -290 300 0 300 0 0 55 0 55 -235 0 -235 0 0 70 0 70
135 0 135 0 0 50 0 50 -135 0 -135 0 0 65 0 65 230 0 230 0 0 50 0 50 -295 0
-295 0 0 -290z"/>
<path d="M1590 3202 c0 -4 18 -54 41 -112 22 -58 53 -139 69 -180 16 -41 46
-120 68 -175 l39 -100 48 0 47 0 76 190 c42 105 78 192 80 195 6 8 20 -23 93
-207 l73 -183 45 0 46 0 108 283 c59 155 107 285 107 290 0 12 -120 8 -120 -5
0 -6 -27 -86 -60 -177 -33 -91 -63 -173 -66 -181 -7 -21 -13 -10 -83 167 -88
220 -77 203 -130 203 l-46 0 -75 -190 c-41 -105 -77 -190 -80 -190 -3 0 -36
86 -75 190 l-70 190 -67 0 c-38 0 -68 -3 -68 -8z"/>
<path d="M2830 3058 c-47 -83 -98 -174 -113 -202 -16 -28 -46 -80 -66 -116
-71 -121 -71 -110 3 -110 l64 0 37 65 36 65 185 0 184 0 32 -65 32 -65 73 0
c40 0 73 3 73 6 0 4 -73 134 -162 290 l-163 284 -65 0 -65 0 -85 -152z m215
-90 l57 -108 -127 0 c-70 0 -125 4 -123 8 25 59 122 222 128 215 5 -4 34 -56
65 -115z"/>
<path d="M3570 2921 l0 -291 65 0 65 0 0 110 0 110 66 0 66 0 118 -110 118
-111 93 3 93 3 -132 105 -132 105 76 6 c64 6 80 11 103 33 24 24 26 34 30 123
1 53 -2 113 -8 132 -19 65 -25 66 -338 69 l-283 3 0 -290z m474 183 c23 -9 23
-139 0 -148 -9 -3 -90 -6 -180 -6 l-164 0 0 80 0 80 164 0 c90 0 171 -3 180
-6z"/>
<path d="M4470 2920 l0 -290 300 0 300 0 0 55 0 55 -235 0 -235 0 0 70 0 70
135 0 135 0 0 50 0 50 -135 0 -135 0 0 65 0 65 230 0 230 0 0 50 0 50 -295 0
-295 0 0 -290z"/>
<path d="M5320 2920 l0 -290 65 0 65 0 0 125 0 125 215 0 215 0 0 -125 0 -125
65 0 65 0 0 290 0 290 -65 0 -65 0 0 -115 0 -115 -215 0 -215 0 0 115 0 115
-65 0 -65 0 0 -290z"/>
<path d="M6360 3197 c-56 -19 -60 -38 -60 -275 0 -244 5 -264 68 -281 49 -14
525 -14 574 0 63 17 68 37 68 274 0 242 -6 267 -67 284 -54 15 -538 13 -583
-2z m520 -272 l0 -185 -225 0 -225 0 0 185 0 185 225 0 225 0 0 -185z"/>
<path d="M7300 2960 c0 -286 3 -302 68 -319 20 -6 138 -11 265 -11 251 0 289
7 307 55 6 15 10 135 10 276 l0 249 -65 0 -65 0 0 -235 0 -235 -195 0 -195 0
0 235 0 235 -65 0 -65 0 0 -250z"/>
<path d="M8326 3201 c-16 -3 -38 -19 -50 -34 -18 -24 -21 -42 -21 -127 0 -85
3 -103 21 -127 12 -15 34 -31 50 -34 16 -4 120 -7 232 -8 l202 -1 0 -65 0 -65
-205 0 -205 0 0 35 c0 34 -1 34 -32 28 -84 -16 -83 -16 -80 -69 2 -37 9 -55
27 -74 l25 -25 238 -3 c340 -5 347 -1 347 174 0 88 -3 106 -21 131 -11 15 -32
31 -45 34 -13 4 -117 7 -231 8 l-208 1 0 65 0 65 189 0 190 0 3 -32 c3 -36 6
-36 81 -17 32 9 37 13 37 40 0 50 -26 87 -68 98 -39 12 -427 13 -476 2z"/>
<path d="M9160 2920 l0 -290 300 0 300 0 0 55 0 55 -235 0 -235 0 0 70 0 70
135 0 135 0 0 50 0 50 -135 0 -135 0 0 65 0 65 230 0 230 0 0 50 0 50 -295 0
-295 0 0 -290z"/>
<path d="M1229 2958 c-2 -18 -3 -45 -1 -60 l3 -28 125 0 124 0 0 60 0 60 -124
0 -124 0 -3 -32z"/>
<path d="M3980 1830 l0 -160 36 0 35 0 -1 103 c-1 56 -1 106 -1 110 1 4 49
-34 109 -84 59 -50 117 -100 130 -110 12 -11 33 -19 47 -19 l25 0 0 160 0 160
-30 0 -30 0 0 -105 c0 -58 -4 -105 -8 -105 -4 0 -65 47 -134 105 -89 74 -134
105 -152 105 l-26 0 0 -160z"/>
<path d="M4530 1830 l0 -160 164 0 c136 0 165 3 170 15 15 39 -1 45 -130 45
l-124 0 0 40 0 40 70 0 70 0 0 30 0 30 -70 0 -70 0 0 30 0 30 125 0 125 0 0
30 0 30 -165 0 -165 0 0 -160z"/>
<path d="M5000 1830 l0 -160 40 0 40 0 0 60 0 60 113 0 c148 0 157 6 157 100
0 98 -4 100 -197 100 l-153 0 0 -160z m280 60 l0 -40 -100 0 -100 0 0 40 0 40
100 0 100 0 0 -40z"/>
<path d="M5515 1923 c-92 -165 -135 -242 -135 -247 0 -3 15 -6 33 -6 28 0 36
5 50 35 l17 35 105 0 105 0 17 -35 c15 -31 21 -35 55 -35 21 0 38 3 38 7 0 4
-39 76 -87 160 -87 153 -88 153 -123 153 -34 0 -38 -4 -75 -67z m108 -58 c15
-31 27 -58 27 -60 0 -3 -29 -5 -65 -5 -36 0 -65 3 -65 8 0 13 60 112 68 112 4
0 20 -25 35 -55z"/>
<path d="M5912 1833 l3 -158 158 -3 157 -3 0 31 0 30 -120 0 -120 0 0 130 0
130 -40 0 -41 0 3 -157z"/>
</g>
</svg>
